Coordinates
version=1
nRows=13
nColumns=22
inDegrees=yes

Units are S.I. units (second, meters, Newtons, ...)
If the header above contains a line with 'inDegrees', this indicates whether rotational values are in degrees (yes) or radians (no).

endheader
time	pelvis_tilt	pelvis_list	pelvis_rotation	pelvis_tx	pelvis_ty	pelvis_tz	hip_flexion_r	hip_adduction_r	hip_rotation_r	knee_angle_r	ankle_angle_r	subtalar_angle_r	hip_flexion_l	hip_adduction_l	hip_rotation_l	knee_angle_l	ankle_angle_l	subtalar_angle_l	lumbar_extension	lumbar_bending	lumbar_rotation
      3.48000000	      2.04099545	      5.74762990	    146.47765288	      0.32648232	      0.89713104	     -0.53397478	     21.84843323	      4.97998867	      5.75790299	    -19.19218963	     -5.41476072	     10.72308695	    -13.58589087	     -0.07563159	      5.19314241	    -29.79890354	      3.30049128	    -12.08496712	     -4.88332275	      0.12839758	     -3.28173885
      3.49000000	      2.22880678	      6.13543676	    147.15640183	      0.31740732	      0.89822435	     -0.53982963	     21.49014688	      5.22533440	      5.05136733	    -19.99300815	     -5.05371672	     10.88516926	    -12.71175597	     -0.70587897	      4.45310333	    -32.27773914	      1.28422517	    -11.59272468	     -4.71045525	      0.78284111	     -3.10415959
      3.50000000	      2.36270965	      6.61783679	    147.93186016	      0.30839023	      0.89955512	     -0.54542670	     20.91136599	      5.49488268	      4.28911723	    -20.55324800	     -4.63405121	     11.00992536	    -11.73187372	     -1.45448043	      3.69885065	    -34.97694985	     -0.87262711	    -11.21817250	     -4.65866910	      1.48053062	     -2.96848468
      3.51000000	      2.46874580	      7.11977765	    148.77304081	      0.29953281	      0.90096399	     -0.55076509	     20.22652857	      5.76042024	      3.47627998	    -20.94378883	     -4.14397340	     11.10578199	    -10.58988658	     -2.26439562	      2.97763539	    -37.86415064	     -3.07063788	    -10.87530151	     -4.65983428	      2.16057881	     -2.82518648
      3.52000000	      2.55966597	      7.63181016	    149.67550280	      0.29089428	      0.90238255	     -0.55584290	     19.47959035	      6.03398840	      2.62180193	    -21.20280897	     -3.63360354	     11.15394737	     -9.28332926	     -3.13019778	      2.33652098	    -40.90213269	     -5.20772315	    -10.59067963	     -4.69560552	      2.82014629	     -2.66742266
      3.53000000	      2.63071491	      8.12460773	    150.61100019	      0.28250908	      0.90376381	     -0.56066533	     18.69374416	      6.30064442	      1.74840830	    -21.34279160	     -3.11512870	     11.13447303	     -7.82592874	     -4.00258925	      1.79626143	    -44.04107794	     -7.20860638	    -10.38500823	     -4.75995258	      3.43072683	     -2.48959025
      3.54000000	      2.66195275	      8.59157348	    151.57442662	      0.27439839	      0.90511217	     -0.56524327	     17.85714642	      6.55397700	      0.90016129	    -21.36649385	     -2.61077743	     11.05260594	     -6.25939474	     -4.84453858	      1.39448261	    -47.22161078	     -9.05220450	    -10.22330529	     -4.87124921	      3.97142461	     -2.27483822
      3.55000000	      2.65485475	      9.01484299	    152.55613666	      0.26653819	      0.90640932	     -0.56956724	     16.98240427	      6.78146036	      0.08156851	    -21.28168535	     -2.12355314	     10.91388860	     -4.60397183	     -5.61262560	      1.14663507	    -50.37849317	    -10.68535054	    -10.03609427	     -5.01655276	      4.43349212	     -1.99915638
      3.56000000	      2.63958645	      9.34753405	    153.52482978	      0.25898312	      0.90752134	     -0.57368541	     16.18343499	      6.95305964	     -0.76055909	    -21.21005329	     -1.59304918	     10.65044372	     -2.82297211	     -6.28974184	      0.94735981	    -53.48772089	    -11.97673648	     -9.72745524	     -5.14659656	      4.78121532	     -1.68159629
      3.57000000	      2.52585288	      9.63547501	    154.51395515	      0.25159304	      0.90871130	     -0.57755750	     15.26153427	      7.07613091	     -1.49536830	    -20.99631260	     -1.12930373	     10.41926403	     -1.07910495	     -6.83438224	      0.86268817	    -56.42661881	    -13.04090571	     -9.33826521	     -5.36865847	      5.02760313	     -1.34244266
      3.58000000	      2.42155139	      9.80904442	    155.45987844	      0.24440608	      0.90971419	     -0.58124818	     14.45742389	      7.12023906	     -2.26211487	    -20.85297637	     -0.58858443	     10.02340823	      0.74211326	     -7.23965839	      0.77989873	    -59.19623421	    -13.66515592	     -8.69473197	     -5.53826276	      5.15476406	     -0.89468268
      3.59000000	      2.21708478	      9.91946270	    156.39057909	      0.23731221	      0.91081517	     -0.58475044	     13.56096714	      7.09917211	     -2.89932957	    -20.64444773	     -0.06697953	      9.66251834	      2.47281130	     -7.50228408	      0.68065119	    -61.71526012	    -14.00525272	     -8.03837454	     -5.79087969	      5.17091510	     -0.43531457
      3.60000000	      1.94230453	      9.97393854	    157.29735247	      0.23026713	      0.91197642	     -0.58806439	     12.63326405	      7.01573589	     -3.51747597	    -20.44713006	      0.41210251	      9.34856165	      4.12111847	     -7.65660080	      0.51600879	    -63.97677848	    -14.00557800	     -7.47700770	     -6.09481355	      5.10589114	      0.07565308
